<svg width="30" height="30" viewBox="0 0 30 30" fill="none" xmlns="http://www.w3.org/2000/svg">
<path d="M16.1581 23.4787C16.1581 22.7275 15.5484 22.1178 14.7972 22.1178C14.0461 22.1178 13.4364 22.7275 13.4364 23.4787C13.4364 23.957 13.6823 24.378 14.0562 24.6206C14.0562 25.21 14.0562 26.5507 14.0562 26.5945C14.0562 26.8471 14.3897 27.0526 14.8006 27.0526C15.1913 27.0526 15.5113 26.8673 15.5417 26.6315V26.6281C15.5417 26.618 15.545 26.6046 15.545 26.5945C15.545 26.5844 15.545 25.2168 15.545 24.6206C15.9122 24.3747 16.1581 23.957 16.1581 23.4787Z" fill="black"/>
<path d="M18.4552 4.54141L17.7175 5.23194C17.731 5.24878 19.2232 6.86899 19.0245 9.15952C18.9032 10.5305 18.5731 15.8256 18.5596 16.0513L19.5668 16.1153C19.5702 16.0614 19.9137 10.6113 20.0316 9.25047C20.2674 6.51194 18.5293 4.61889 18.4552 4.54141Z" fill="black"/>
<path d="M15.1677 3.9553C16.3904 3.97215 17.1685 4.67278 17.1752 4.67951L17.5188 4.30899L17.8658 3.94183C17.822 3.90141 16.8115 2.97172 15.1845 2.94815C13.5272 2.9212 12.6447 3.65215 12.6077 3.68583L13.2544 4.46393C13.278 4.43362 13.9146 3.93846 15.1677 3.9553Z" fill="black"/>
<path d="M11.3714 7.38098C11.5365 5.86856 12.51 5.03656 12.5201 5.02983L12.1967 4.63909L11.8767 4.24835C11.8228 4.29214 10.5765 5.33298 10.3643 7.26983C10.1723 9.03825 10.051 11.4366 10.051 11.4601L11.0616 11.5107C11.0649 11.4905 11.1828 9.11909 11.3714 7.38098Z" fill="black"/>
<path d="M15.1407 5.1814L15.0868 4.6795C14.8914 4.69971 13.1499 4.92203 12.4931 6.07066C12.1057 6.75108 12.035 7.40456 11.9609 8.09172L11.9373 8.30393C11.8531 9.05171 11.7487 12.2012 11.7419 12.3326L12.7525 12.3662C12.7525 12.3326 12.8636 9.12582 12.9411 8.41508L12.9647 8.1995C13.032 7.56624 13.0859 7.06771 13.3689 6.56919C13.7091 5.96961 14.8005 5.72708 15.1912 5.68329L15.1407 5.1814Z" fill="black"/>
<path d="M16.5925 8.62395C16.5656 7.56289 16.3971 6.98352 16.0064 6.62984C15.7268 6.37384 15.3563 6.26605 14.8746 6.29974C14.5209 6.32331 14.2413 6.45468 14.0392 6.69047C13.6586 7.1351 13.7159 7.7751 13.763 8.341C13.7698 8.42184 13.7765 8.50268 13.7832 8.58016C13.8304 9.27742 13.7664 10.5136 13.7664 10.5271L14.7769 10.581C14.7803 10.5271 14.8443 9.27068 14.7938 8.50942C14.787 8.42521 14.7803 8.33763 14.7736 8.25005C14.7466 7.957 14.7062 7.46521 14.8106 7.34395C14.8274 7.32374 14.878 7.31026 14.9487 7.30689C15.2317 7.29005 15.3058 7.35405 15.3293 7.37763C15.4338 7.47195 15.5651 7.77174 15.5853 8.65089C15.6561 11.5141 15.518 13.6463 15.2148 14.3536L16.1445 14.7477C16.6363 13.589 16.6363 10.4126 16.5925 8.62395Z" fill="black"/>
<path d="M17.9803 14.3334C18.553 11.7801 18.297 9.37845 18.142 7.9435C18.1151 7.6774 18.0881 7.44498 18.0746 7.25971C17.9433 5.49466 16.5791 4.83445 15.8751 4.7334L15.7302 5.73382C15.7808 5.74056 16.9597 5.92919 17.0675 7.33382C17.081 7.52919 17.1079 7.77171 17.1382 8.05129C17.2864 9.42224 17.529 11.7195 16.9934 14.1111L17.9803 14.3334Z" fill="black"/>
<path d="M13.2443 14.2862L14.2076 14.5928L14.5883 13.3936C15.0127 12.053 14.6758 11.1974 14.6354 11.1031L13.7024 11.4938C13.7125 11.5174 13.9348 12.1069 13.6249 13.0871L13.2443 14.2862Z" fill="black"/>
<path d="M11.0009 14.3738C10.9134 13.0298 10.9807 12.0025 10.9807 11.9924L9.97357 11.925C9.97021 11.9688 9.90284 13.0265 9.99378 14.4378C10.1487 16.826 11.0649 18.5743 11.1054 18.6484L11.998 18.1734C11.9879 18.1566 11.1424 16.533 11.0009 14.3738Z" fill="black"/>
<path d="M14.1909 19.5646C12.9749 19.413 12.2776 18.6349 12.2709 18.6281L11.5062 19.2884C11.5433 19.3321 12.4494 20.3662 14.0662 20.565C14.2919 20.5919 14.5075 20.6054 14.7062 20.6054C15.9559 20.6054 16.6734 20.1338 16.7071 20.1102L16.1479 19.2681C16.1176 19.2917 15.4338 19.7195 14.1909 19.5646Z" fill="black"/>
<path d="M16.9664 18.7629L17.2157 19.2008L17.4616 19.6421C17.5256 19.605 19.0751 18.7157 19.3277 16.7385L18.3239 16.6105C18.1386 18.0724 17.0136 18.7359 16.9664 18.7629Z" fill="black"/>
<path d="M17.7917 15.5764L17.8388 15.317L16.8452 15.1284L16.7946 15.3945C16.6801 16.0277 16.5858 16.5263 16.2153 17.2168C15.9155 17.7793 14.75 17.8635 14.3626 17.8467L14.3424 18.3519L14.3188 18.8572C14.3458 18.8572 14.3963 18.8606 14.4637 18.8606C14.9757 18.8606 16.5285 18.7696 17.1045 17.6951C17.5559 16.8597 17.6704 16.2366 17.7917 15.5764Z" fill="black"/>
<path d="M14.531 17.2505C15.5517 17.2505 15.8144 16.3511 15.9896 15.7515C16.0334 15.6033 16.0771 15.4484 16.1344 15.2968L15.1845 14.9465C15.1205 15.1182 15.07 15.2934 15.0195 15.4652C14.8106 16.1759 14.7331 16.25 14.5007 16.2366C14.3795 16.2332 14.1639 16.2096 14.0965 16.1153C14.0595 16.0614 13.9517 15.8189 14.2009 15.034L13.2376 14.7275C12.9513 15.6302 12.9614 16.2568 13.2679 16.6947C13.5104 17.0382 13.9113 17.2235 14.4603 17.2471C14.4873 17.2505 14.5108 17.2505 14.531 17.2505Z" fill="black"/>
<path d="M11.6578 16.0311C11.843 17.8062 13.3386 18.6349 13.4026 18.6719L13.8843 17.7827C13.8742 17.7759 12.7929 17.1763 12.6616 15.9267C12.5571 14.933 12.8131 13.6126 12.8165 13.5991L11.8262 13.4037C11.8161 13.4643 11.5399 14.8858 11.6578 16.0311Z" fill="black"/>
</svg>
