<svg width="16" height="26" viewBox="0 0 16 26" fill="none" xmlns="http://www.w3.org/2000/svg">
<path d="M14.7308 12.2212L2.74086 0.797102C2.5408 0.606389 2.27501 0.499999 1.99862 0.499999C1.72222 0.499999 1.45643 0.606389 1.25638 0.797102L1.24347 0.81001C1.14615 0.902464 1.06865 1.01375 1.0157 1.1371C0.962744 1.26045 0.935436 1.39328 0.935436 1.52751C0.935436 1.66175 0.962744 1.79458 1.0157 1.91792C1.06865 2.04127 1.14615 2.15256 1.24347 2.24501L12.5342 13.0022L1.24347 23.755C1.14615 23.8474 1.06865 23.9587 1.0157 24.0821C0.962743 24.2054 0.935435 24.3383 0.935435 24.4725C0.935435 24.6067 0.962743 24.7396 1.0157 24.8629C1.06865 24.9862 1.14615 25.0975 1.24347 25.19L1.25638 25.2029C1.45643 25.3936 1.72222 25.5 1.99862 25.5C2.27501 25.5 2.5408 25.3936 2.74086 25.2029L14.7308 13.7788C14.8362 13.6784 14.9202 13.5575 14.9775 13.4236C15.0349 13.2898 15.0645 13.1456 15.0645 13C15.0645 12.8544 15.0349 12.7102 14.9775 12.5764C14.9202 12.4425 14.8362 12.3216 14.7308 12.2212Z" fill="white"/>
</svg>
