<svg width="30" height="30" viewBox="0 0 30 30" fill="none" xmlns="http://www.w3.org/2000/svg">
<path d="M15.6824 7.33475L16.7279 8.03195L16.8191 12.7446L15.7872 12.0308L15.6824 7.33475Z" fill="black" fill-opacity="0.5"/>
<path d="M18.1484 9.05359L19.1941 9.75079L19.2406 16.0323L18.2087 15.3185L18.1484 9.05359Z" fill="black"/>
<path d="M10.9965 4.06909L12.042 4.76629L12.0988 13.1753L11.067 12.4614L10.9965 4.06909Z" fill="black"/>
<path d="M13.4739 5.78L14.5196 6.4772L14.4612 12.8418L13.4304 12.0933L13.4739 5.78Z" fill="black" fill-opacity="0.5"/>
<path d="M12.9619 22.6419C13.0588 22.6839 13.1578 22.7246 13.2636 22.7613L13.2502 24.4644C13.2439 25.2665 13.8918 25.9244 14.6943 25.9308C15.4467 25.9368 16.0884 25.3547 16.1551 24.6054L16.1571 24.5747C16.1592 24.5459 16.161 24.5172 16.1611 24.4878L16.1742 22.832C16.3003 22.791 16.4214 22.7465 16.5345 22.6967L17.4279 22.1301C17.674 21.9126 17.8651 21.6798 18.0112 21.459C18.6675 20.4678 18.7641 19.1955 18.4786 18.5378C17.7618 16.887 16.8966 13.8984 16.8879 13.8684L16.779 13.4913L15.1758 13.4784L14.7354 13.4748L12.9382 13.4604L12.8154 13.8186C12.8052 13.8485 11.7819 16.8192 10.948 18.4559C10.6515 19.0385 10.6653 20.1984 11.2747 21.2015C11.4526 21.4943 11.7063 21.8051 12.0496 22.0884M14.3025 24.4728L14.3385 19.9028C14.3403 19.6803 14.5225 19.5009 14.7448 19.5027C14.9671 19.5045 15.1467 19.6868 15.1449 19.9092L15.1089 24.4787L15.1065 24.5124C15.0883 24.7194 14.9109 24.8807 14.7025 24.879C14.4801 24.8772 14.3007 24.6951 14.3025 24.4728ZM17.1336 20.8785C16.8943 21.24 16.573 21.5078 16.183 21.6933L16.197 19.9176C16.2033 19.1153 15.5554 18.4574 14.7529 18.4509C13.9504 18.4445 13.2924 19.0919 13.2861 19.8942L13.2724 21.6209C12.8014 21.3972 12.4293 21.0755 12.1738 20.6552C11.7312 19.9272 11.7688 19.1624 11.8855 18.9333C12.5856 17.5592 13.3816 15.3756 13.6851 14.5184L14.7268 14.5268L15.1672 14.5304L15.9876 14.537C16.248 15.4095 16.9167 17.5833 17.5131 18.9566C17.6173 19.1963 17.656 20.0898 17.1336 20.8785Z" fill="black"/>
</svg>
