<svg width="16" height="10" viewBox="0 0 16 10" fill="none" xmlns="http://www.w3.org/2000/svg">
<path d="M8.46729 9.03856L15.3217 1.84461C15.4362 1.72458 15.5 1.56511 15.5 1.39927C15.5 1.23343 15.4362 1.07396 15.3217 0.953924L15.314 0.946178C15.2585 0.887787 15.1918 0.84129 15.1177 0.809518C15.0437 0.777745 14.964 0.76136 14.8835 0.76136C14.803 0.76136 14.7233 0.777745 14.6492 0.809518C14.5752 0.84129 14.5085 0.887787 14.453 0.946178L7.99871 7.72059L1.54701 0.946177C1.49154 0.887786 1.42477 0.841289 1.35076 0.809517C1.27675 0.777744 1.19705 0.761359 1.11651 0.761359C1.03597 0.761359 0.95627 0.777744 0.882261 0.809517C0.808253 0.841289 0.741482 0.887786 0.686009 0.946177L0.678263 0.953923C0.563836 1.07396 0.500001 1.23343 0.500001 1.39927C0.500001 1.5651 0.563836 1.72458 0.678263 1.84461L7.53271 9.03856C7.59299 9.10182 7.66549 9.15219 7.74581 9.18661C7.82614 9.22102 7.91261 9.23877 8 9.23877C8.08739 9.23877 8.17386 9.22102 8.25419 9.18661C8.33451 9.15219 8.40701 9.10182 8.46729 9.03856Z" fill="black"/>
</svg>
