<svg width="6" height="10" viewBox="0 0 6 10" fill="none" xmlns="http://www.w3.org/2000/svg">
<path d="M5.15396 4.75078L1.31719 1.09507C1.25317 1.03404 1.16812 1 1.07967 1C0.991229 1 0.906176 1.03404 0.842157 1.09507L0.838027 1.0992C0.806884 1.12879 0.782086 1.1644 0.765141 1.20387C0.748196 1.24334 0.739457 1.28585 0.739457 1.3288C0.739457 1.37176 0.748196 1.41426 0.765141 1.45374C0.782086 1.49321 0.806884 1.52882 0.838026 1.5584L4.45105 5.00069L0.838026 8.4416C0.806883 8.47118 0.782086 8.50679 0.765141 8.54626C0.748195 8.58573 0.739456 8.62824 0.739456 8.6712C0.739456 8.71415 0.748195 8.75666 0.765141 8.79613C0.782086 8.8356 0.806883 8.87121 0.838026 8.9008L0.842157 8.90493C0.906175 8.96595 0.991228 9 1.07967 9C1.16812 9 1.25317 8.96595 1.31719 8.90493L5.15396 5.24922C5.1877 5.21707 5.21457 5.17841 5.23292 5.13557C5.25128 5.09273 5.26074 5.04661 5.26074 5C5.26074 4.95339 5.25128 4.90727 5.23292 4.86443C5.21457 4.82159 5.1877 4.78293 5.15396 4.75078Z" fill="black" stroke="black" stroke-width="0.2"/>
</svg>
