<svg width="22" height="22" viewBox="0 0 22 22" fill="none" xmlns="http://www.w3.org/2000/svg">
<path d="M21 10.9995H7.64324M2.92865 10.9995H1M2.92865 10.9995C2.92865 10.3886 3.17695 9.80266 3.61893 9.37065C4.0609 8.93864 4.66035 8.69594 5.28541 8.69594C5.91046 8.69594 6.50991 8.93864 6.95188 9.37065C7.39386 9.80266 7.64216 10.3886 7.64216 10.9995C7.64216 11.6105 7.39386 12.1964 6.95188 12.6284C6.50991 13.0604 5.91046 13.3031 5.28541 13.3031C4.66035 13.3031 4.0609 13.0604 3.61893 12.6284C3.17695 12.1964 2.92865 11.6105 2.92865 10.9995ZM21 17.9811H14.7859M14.7859 17.9811C14.7859 18.5922 14.537 19.1788 14.095 19.6109C13.6529 20.043 13.0533 20.2858 12.4281 20.2858C11.8031 20.2858 11.2036 20.042 10.7616 19.61C10.3197 19.178 10.0714 18.5921 10.0714 17.9811M14.7859 17.9811C14.7859 17.37 14.537 16.7845 14.095 16.3524C13.6529 15.9203 13.0533 15.6775 12.4281 15.6775C11.8031 15.6775 11.2036 15.9202 10.7616 16.3522C10.3197 16.7842 10.0714 17.3702 10.0714 17.9811M10.0714 17.9811H1M21 4.01795H17.6432M12.9286 4.01795H1M12.9286 4.01795C12.9286 3.407 13.1769 2.82107 13.6189 2.38906C14.0609 1.95706 14.6604 1.71436 15.2854 1.71436C15.5949 1.71436 15.9014 1.77394 16.1873 1.88971C16.4732 2.00547 16.733 2.17515 16.9519 2.38906C17.1707 2.60297 17.3443 2.85692 17.4628 3.1364C17.5812 3.41589 17.6422 3.71544 17.6422 4.01795C17.6422 4.32046 17.5812 4.62002 17.4628 4.8995C17.3443 5.17899 17.1707 5.43293 16.9519 5.64684C16.733 5.86075 16.4732 6.03043 16.1873 6.1462C15.9014 6.26196 15.5949 6.32155 15.2854 6.32155C14.6604 6.32155 14.0609 6.07885 13.6189 5.64684C13.1769 5.21483 12.9286 4.6289 12.9286 4.01795Z" stroke="black" stroke-width="1.5" stroke-miterlimit="10" stroke-linecap="round"/>
</svg>
