<svg width="30" height="30" viewBox="0 0 30 30" fill="none" xmlns="http://www.w3.org/2000/svg">
<path d="M20.3297 12.5258L19.8676 11.5013L14.034 14.1325L14.3132 14.7514C11.7401 14.8317 9.67017 16.9446 9.67017 19.537C9.67017 22.18 11.8204 24.3302 14.4634 24.3302C17.1065 24.3302 19.2569 22.18 19.2569 19.537C19.2569 18.3563 18.8258 17.276 18.1154 16.4397L20.3298 15.4418L19.8681 14.4173L17.2105 15.6149C16.6375 15.2123 15.9732 14.9347 15.255 14.8147L20.3297 12.5258ZM14.4633 23.2067C12.4399 23.2067 10.7935 21.5606 10.7935 19.537C10.7935 17.5134 12.4398 15.8672 14.4633 15.8672C16.4868 15.8672 18.1332 17.5133 18.1332 19.537C18.133 21.5606 16.4868 23.2067 14.4633 23.2067ZM14.4959 12.2408L14.0342 11.2163L19.8679 8.58545L20.3297 9.60993L14.4959 12.2408ZM14.4959 9.32513L14.0342 8.30065L19.8679 5.66977L20.3297 6.69425L14.4959 9.32513ZM14.4633 17.3746C13.219 17.3746 12.2066 18.3869 12.2066 19.6314C12.2066 20.8757 13.219 21.8878 14.4633 21.8878C15.7076 21.8878 16.7201 20.8755 16.7201 19.6314C16.7201 18.3869 15.7076 17.3746 14.4633 17.3746ZM14.4633 20.7643C13.8385 20.7643 13.3302 20.2562 13.3302 19.6314C13.3302 19.0066 13.8385 18.4981 14.4633 18.4981C15.0882 18.4981 15.5966 19.0066 15.5966 19.6314C15.5966 20.2562 15.0882 20.7643 14.4633 20.7643Z" fill="black"/>
</svg>
