<svg width="26" height="26" viewBox="0 0 26 26" fill="none" xmlns="http://www.w3.org/2000/svg">
<path d="M24.5 24.5L18.9507 18.9507M18.9507 18.9507C19.8999 18.0014 20.6529 16.8745 21.1666 15.6343C21.6803 14.3941 21.9447 13.0648 21.9447 11.7224C21.9447 10.3799 21.6803 9.05067 21.1666 7.81044C20.6529 6.5702 19.8999 5.4433 18.9507 4.49406C18.0014 3.54483 16.8745 2.79185 15.6343 2.27813C14.3941 1.76441 13.0648 1.5 11.7224 1.5C10.3799 1.5 9.05067 1.76441 7.81044 2.27813C6.5702 2.79185 5.4433 3.54483 4.49406 4.49406C2.577 6.41113 1.5 9.01123 1.5 11.7224C1.5 14.4335 2.577 17.0336 4.49406 18.9507C6.41113 20.8677 9.01123 21.9447 11.7224 21.9447C14.4335 21.9447 17.0336 20.8677 18.9507 18.9507Z" stroke="black" stroke-width="2" stroke-linecap="round" stroke-linejoin="round"/>
</svg>
