<svg width="30" height="30" viewBox="0 0 30 30" fill="none" xmlns="http://www.w3.org/2000/svg">
<path d="M21 18V12C21 9.172 21 7.757 20.121 6.879C19.243 6 17.828 6 15 6H11C8.172 6 6.757 6 5.879 6.879C5 7.757 5 9.172 5 12V18C5 20.828 5 22.243 5.879 23.121C6.757 24 8.172 24 11 24H23M9 11H17M9 15H17M9 19H13" stroke="black" stroke-width="1.5" stroke-linecap="round" stroke-linejoin="round"/>
<path d="M21 11H22C23.414 11 24.121 11 24.56 11.44C25 11.879 25 12.586 25 14V22C25 22.5304 24.7893 23.0391 24.4142 23.4142C24.0391 23.7893 23.5304 24 23 24C22.4696 24 21.9609 23.7893 21.5858 23.4142C21.2107 23.0391 21 22.5304 21 22V11Z" stroke="black" stroke-width="1.5" stroke-linecap="round" stroke-linejoin="round"/>
</svg>
