<svg width="30" height="30" viewBox="0 0 30 30" fill="none" xmlns="http://www.w3.org/2000/svg">
<path d="M25 19.9328H23.8796C23.8796 15.0364 19.902 11.0476 15.0056 11.0476C10.1092 11.0476 6.12045 15.0364 6.12045 19.9328H5C5 14.409 9.48179 9.92719 15.0056 9.92719C20.5294 9.92719 25 14.409 25 19.9328Z" fill="black"/>
<path d="M15.4202 12.5602H14.5798V14.1289H15.4202V12.5602Z" fill="black"/>
<path d="M10.4495 14.2642L9.85547 14.8586L10.965 15.9674L11.559 15.3731L10.4495 14.2642Z" fill="black"/>
<path d="M9.71719 18.9916H8.14856V19.8319H9.71719V18.9916Z" fill="black"/>
<path d="M21.8628 18.9916H20.2942V19.8319H21.8628V18.9916Z" fill="black"/>
<path d="M19.5561 14.2668L18.4469 15.3759L19.0411 15.9701L20.1503 14.861L19.5561 14.2668Z" fill="black"/>
<path d="M14.591 18.9916C14.8487 18.6891 17.3137 16.6947 17.3137 16.6947C17.3137 16.6947 15.7899 19.4734 15.5322 19.7871C15.2745 20.0897 14.8487 20.1681 14.591 19.944C14.3333 19.7311 14.3333 19.3053 14.591 18.9916Z" fill="black"/>
</svg>
