<svg width="30" height="30" viewBox="0 0 30 30" fill="none" xmlns="http://www.w3.org/2000/svg">
<path d="M20 18.8743V23.3955C20 24.3096 19.2059 25.0508 18.2265 25.0508H6.77353C5.79412 25.0508 5 24.3096 5 23.3955V12.7061C5 11.792 5.79412 11.0508 6.77353 11.0508H11.6176" stroke="black" stroke-miterlimit="10"/>
<mask id="mask0_679_7268" style="mask-type:luminance" maskUnits="userSpaceOnUse" x="11" y="4" width="15" height="15">
<path d="M11.6518 9.37437L20.501 18.373L25.0003 13.9485L16.1512 4.9498L11.6518 9.37437Z" fill="white"/>
</mask>
<g mask="url(#mask0_679_7268)">
<path d="M16.0778 14.8704C16.6261 14.8704 17.0706 14.4259 17.0706 13.8776C17.0706 13.3293 16.6261 12.8848 16.0778 12.8848C15.5295 12.8848 15.085 13.3293 15.085 13.8776C15.085 14.4259 15.5295 14.8704 16.0778 14.8704Z" stroke="black" stroke-width="1.05" stroke-miterlimit="10"/>
<path d="M16.0778 16.3607C17.4486 16.3607 18.5599 15.2494 18.5599 13.8786C18.5599 12.5078 17.4486 11.3965 16.0778 11.3965C14.707 11.3965 13.5957 12.5078 13.5957 13.8786C13.5957 15.2494 14.707 16.3607 16.0778 16.3607Z" stroke="black" stroke-width="0.98" stroke-miterlimit="10"/>
<path d="M16.0779 17.856C18.2758 17.856 20.0576 16.0742 20.0576 13.8762C20.0576 11.6783 18.2758 9.89648 16.0779 9.89648C13.8799 9.89648 12.0981 11.6783 12.0981 13.8762C12.0981 16.0742 13.8799 17.856 16.0779 17.856Z" stroke="black" stroke-width="1.05" stroke-miterlimit="10"/>
<path d="M16.0779 19.3462C19.0983 19.3462 21.5469 16.8976 21.5469 13.8772C21.5469 10.8568 19.0983 8.4082 16.0779 8.4082C13.0574 8.4082 10.6089 10.8568 10.6089 13.8772C10.6089 16.8976 13.0574 19.3462 16.0779 19.3462Z" stroke="black" stroke-width="1.18" stroke-miterlimit="10"/>
</g>
<path d="M8.24023 20.1719H9.3457C9.55924 20.1719 9.74154 20.2096 9.89258 20.2852C10.0449 20.3594 10.1608 20.4661 10.2402 20.6055C10.3197 20.7448 10.3594 20.9076 10.3594 21.0938C10.3594 21.2786 10.319 21.4395 10.2383 21.5762C10.1589 21.7116 10.0417 21.8158 9.88672 21.8887C9.73177 21.9603 9.54688 21.9961 9.33203 21.9961H8.58398V21.5176H9.24023C9.35742 21.5176 9.45378 21.502 9.5293 21.4707C9.60482 21.4382 9.66146 21.3906 9.69922 21.3281C9.73698 21.2656 9.75586 21.1875 9.75586 21.0938C9.75586 20.9974 9.73698 20.9167 9.69922 20.8516C9.66146 20.7865 9.60417 20.7376 9.52734 20.7051C9.45052 20.6712 9.35417 20.6543 9.23828 20.6543H8.82617V23H8.24023V20.1719ZM10.4609 23H9.80859L9.12305 21.7148H9.75781L10.4609 23ZM10.7676 20.1719H12.6309V20.6562H11.3535V21.3438H12.5078V21.8262H11.3535V23H10.7676V20.1719ZM13.6035 23H13.0176V20.1719H13.6035V23ZM14.3457 23V22.4961H15.0547C15.237 22.4961 15.3887 22.4635 15.5098 22.3984C15.6309 22.3333 15.722 22.2337 15.7832 22.0996C15.8444 21.9642 15.875 21.7923 15.875 21.584C15.875 21.3757 15.8444 21.2044 15.7832 21.0703C15.7233 20.9349 15.6328 20.8353 15.5117 20.7715C15.3906 20.7077 15.2396 20.6758 15.0586 20.6758H14.332V20.1719H15.0879C15.3717 20.1719 15.6165 20.2285 15.8223 20.3418C16.0293 20.4538 16.1875 20.6159 16.2969 20.8281C16.4076 21.0404 16.4629 21.2923 16.4629 21.584C16.4629 21.877 16.4076 22.1296 16.2969 22.3418C16.1862 22.554 16.0267 22.7168 15.8184 22.8301C15.6113 22.9434 15.3652 23 15.0801 23H14.3457ZM14.6699 23H14.084V20.1719H14.6699V23Z" fill="black"/>
</svg>
