<svg width="28" height="28" viewBox="0 0 28 28" fill="none" xmlns="http://www.w3.org/2000/svg">
<path d="M1.75 9.06249H26.75L25.4453 23.4078C25.3748 24.1842 25.0165 24.9062 24.4409 25.4321C23.8654 25.958 23.114 26.2497 22.3344 26.25H6.16563C5.386 26.2497 4.63464 25.958 4.05906 25.4321C3.48348 24.9062 3.12524 24.1842 3.05469 23.4078L1.75 9.06249Z" stroke="black" stroke-width="2" stroke-linejoin="round"/>
<path d="M8 12.1875V7.5C8 5.8424 8.65848 4.25268 9.83058 3.08058C11.0027 1.90848 12.5924 1.25 14.25 1.25C15.9076 1.25 17.4973 1.90848 18.6694 3.08058C19.8415 4.25268 20.5 5.8424 20.5 7.5V12.1875" stroke="black" stroke-width="2" stroke-linecap="round"/>
</svg>
