<svg width="16" height="26" viewBox="0 0 16 26" fill="none" xmlns="http://www.w3.org/2000/svg">
<path d="M1.26923 13.7788L13.2591 25.2029C13.4592 25.3936 13.725 25.5 14.0014 25.5C14.2778 25.5 14.5436 25.3936 14.7436 25.2029L14.7565 25.19C14.8539 25.0975 14.9313 24.9863 14.9843 24.8629C15.0373 24.7396 15.0646 24.6067 15.0646 24.4725C15.0646 24.3383 15.0373 24.2054 14.9843 24.0821C14.9313 23.9587 14.8539 23.8474 14.7565 23.755L3.46584 12.9978L14.7565 2.24501C14.8539 2.15256 14.9313 2.04128 14.9843 1.91793C15.0373 1.79458 15.0646 1.66175 15.0646 1.52751C15.0646 1.39328 15.0373 1.26045 14.9843 1.1371C14.9313 1.01375 14.8539 0.902468 14.7565 0.810013L14.7436 0.797104C14.5436 0.606391 14.2778 0.500001 14.0014 0.500001C13.725 0.500001 13.4592 0.606391 13.2591 0.797104L1.26923 12.2212C1.16379 12.3216 1.07984 12.4425 1.02248 12.5764C0.965124 12.7102 0.935547 12.8544 0.935547 13C0.935547 13.1456 0.965124 13.2898 1.02248 13.4236C1.07984 13.5575 1.16379 13.6784 1.26923 13.7788Z" fill="white"/>
</svg>
