<svg width="30" height="30" viewBox="0 0 30 30" fill="none" xmlns="http://www.w3.org/2000/svg">
<path d="M15.4095 5.54032L10.8824 12.5392L13.3304 4.94128L15.4095 5.54032Z" fill="black"/>
<path d="M16.1029 9.65793L11.7604 12.6536L14.2349 8.89169L16.1029 9.65793Z" fill="black"/>
<path d="M6.97143 14.5278L6.21975 13.6926L9.04807 11.147L8.76647 10.7718L5.05031 14.2021L3.94727 13.6888L8.91879 9.10223L10.5634 11.295L6.97143 14.5278Z" fill="black"/>
<path d="M14.5407 17.8821H2.02356L2.005 13.5483H12.0527C13.0527 13.5483 14.5405 14.2107 14.5405 16.0362L14.5407 17.8821ZM3.14212 16.7586H13.417V16.0363C13.417 14.7103 12.1922 14.672 12.0527 14.672H3.13364L3.14212 16.7586Z" fill="black"/>
<path d="M14.4726 21.6568C14.4726 20.9398 13.8913 20.3584 13.1744 20.3584C12.4573 20.3584 11.876 20.9397 11.876 21.6568C11.876 22.1123 12.1112 22.5125 12.4661 22.7442C12.4661 23.3051 12.4661 24.5832 12.4661 24.6237C12.4661 24.864 12.7832 25.0587 13.1744 25.0587C13.5461 25.0587 13.8504 24.8826 13.8798 24.6589L13.88 24.6558C13.8813 24.6453 13.8827 24.6346 13.8827 24.6237C13.8827 24.6152 13.8827 23.3112 13.8827 22.7442C14.2376 22.5125 14.4726 22.1123 14.4726 21.6568Z" fill="black"/>
<path d="M27.8726 12.6274C27.6324 12.791 27.3643 12.9563 27.0643 13.1165C25.7969 13.7936 24.9519 13.436 24.447 13.2221C24.3107 13.1643 24.1931 13.1146 24.0755 13.0875C23.7627 13.0157 23.0798 13.0994 21.0331 13.4603C20.7092 13.5174 20.4033 13.5714 20.3046 13.5826C19.7359 13.6479 19.4503 13.5747 19.3615 12.9869C19.3195 12.7085 19.4054 12.601 19.434 12.5656C19.5804 12.3826 19.9143 12.3198 20.0153 12.3123L24.7851 11.1846L24.5249 10.0918L19.8953 11.1954C19.6803 11.2167 18.995 11.3254 18.5646 11.8541C18.5532 11.868 18.5419 11.8848 18.5303 11.8999C17.7803 12.5541 16.6443 13.5442 16.5334 13.6378L16.4899 13.6754C16.182 13.9463 16.0095 13.9954 15.9236 13.9882C15.9033 13.9866 15.8409 13.9823 15.7436 13.8669C15.6766 13.7878 15.6822 13.7518 15.6847 13.7342C15.7073 13.5838 15.9491 13.3533 16.1046 13.2536L16.1523 13.2203C16.182 13.1968 19.1596 10.872 21.671 8.85873C22.3793 8.29057 23.1259 8.02129 23.8188 7.91761L22.866 6.97937C22.2382 7.16705 21.5924 7.48145 20.9681 7.98225C18.5686 9.90577 15.7412 12.1155 15.4801 12.3194C15.3209 12.4247 14.6798 12.8867 14.5748 13.5602C14.535 13.816 14.5566 14.2026 14.8855 14.5918C15.2172 14.985 15.5878 15.0896 15.8401 15.1085C15.8734 15.1111 15.9062 15.1123 15.9391 15.1123C16.5561 15.1123 17.0423 14.6856 17.2313 14.5199L17.2583 14.496C17.3436 14.424 17.8638 13.9751 18.3471 13.5575C18.5067 14.0375 18.8665 14.5565 19.6675 14.6869C19.6987 14.8807 19.7451 15.1152 19.8092 15.3002C19.9919 15.8263 20.5987 16.2087 21.1902 16.2087C21.2742 16.2087 21.3582 16.2008 21.4406 16.1845C21.7099 16.1314 21.9324 16.0203 22.1086 15.873C22.3793 16.096 22.7371 16.2351 23.0911 16.2351C23.1751 16.2351 23.2588 16.2272 23.3414 16.2109C24.0385 16.0739 24.6443 15.5074 24.6916 14.9472C24.7025 14.8173 24.6947 14.6578 24.6796 14.4999C25.3622 14.6915 26.3508 14.7712 27.5939 14.1077C27.7337 14.033 27.8663 13.957 27.995 13.8805L27.8726 12.6274ZM21.223 15.0824C21.1047 15.105 20.906 14.9952 20.8703 14.932C20.8447 14.8581 20.8215 14.7519 20.8007 14.6418C20.915 14.6221 21.0551 14.5975 21.2284 14.5667C21.318 14.5509 21.4235 14.5323 21.539 14.512C21.5519 14.6109 21.5711 14.7421 21.598 14.8829C21.5182 14.959 21.3873 15.0498 21.223 15.0824ZM23.1239 15.1087C23.006 15.1315 22.807 15.0215 22.7716 14.9579C22.7175 14.8026 22.6718 14.5181 22.6481 14.324C22.9737 14.2719 23.2804 14.2264 23.5052 14.2013C23.5417 14.4152 23.5772 14.6848 23.5731 14.825C23.531 14.8968 23.3585 15.0626 23.1239 15.1087Z" fill="black"/>
</svg>
