<svg width="24" height="28" viewBox="0 0 24 28" fill="none" xmlns="http://www.w3.org/2000/svg">
<path d="M11.9999 0C15.0561 0 17.9872 1.21409 20.1483 3.37518C22.3094 5.53627 23.5235 8.46734 23.5235 11.5236C23.5235 16.393 20.1019 21.6998 13.3473 27.5006C12.9717 27.8232 12.4928 28.0004 11.9977 28C11.5026 27.9996 11.024 27.8215 10.649 27.4982L10.2022 27.1106C3.74665 21.461 0.476318 16.2843 0.476318 11.5236C0.476318 8.46734 1.69041 5.53627 3.8515 3.37518C6.01259 1.21409 8.94366 0 11.9999 0ZM11.9999 1.77286C9.41385 1.77286 6.93371 2.80016 5.1051 4.62878C3.27648 6.4574 2.24918 8.93753 2.24918 11.5236C2.24918 15.6626 5.26067 20.4316 11.3664 25.7738L11.8073 26.1556C11.8609 26.2017 11.9292 26.227 11.9999 26.227C12.0706 26.227 12.139 26.2017 12.1926 26.1556C18.5938 20.6574 21.7506 15.7607 21.7506 11.5236C21.7506 10.2431 21.4984 8.97516 21.0084 7.79214C20.5184 6.60913 19.8001 5.53422 18.8947 4.62878C17.9893 3.72334 16.9144 3.00511 15.7313 2.51509C14.5483 2.02507 13.2804 1.77286 11.9999 1.77286ZM11.9999 7.09144C13.1754 7.09144 14.3027 7.55839 15.1339 8.38958C15.9651 9.22077 16.432 10.3481 16.432 11.5236C16.432 12.6991 15.9651 13.8264 15.1339 14.6576C14.3027 15.4888 13.1754 15.9557 11.9999 15.9557C10.8244 15.9557 9.69709 15.4888 8.8659 14.6576C8.03471 13.8264 7.56775 12.6991 7.56775 11.5236C7.56775 10.3481 8.03471 9.22077 8.8659 8.38958C9.69709 7.55839 10.8244 7.09144 11.9999 7.09144ZM11.9999 8.8643C11.2946 8.8643 10.6182 9.14447 10.1195 9.64318C9.62079 10.1419 9.34061 10.8183 9.34061 11.5236C9.34061 12.2289 9.62079 12.9053 10.1195 13.404C10.6182 13.9027 11.2946 14.1829 11.9999 14.1829C12.7052 14.1829 13.3816 13.9027 13.8803 13.404C14.379 12.9053 14.6592 12.2289 14.6592 11.5236C14.6592 10.8183 14.379 10.1419 13.8803 9.64318C13.3816 9.14447 12.7052 8.8643 11.9999 8.8643Z" fill="black"/>
</svg>
