<svg width="30" height="30" viewBox="0 0 30 30" fill="none" xmlns="http://www.w3.org/2000/svg">
<path d="M20.052 11.025H17.4859V13.591H18.154V14.7558L15.5641 16.4211V9.59424H16.7908L15.0028 6.112L13.3992 9.59424H14.4417V18.2621L12.1134 16.675V15.5386C12.7211 15.3104 13.1558 14.7286 13.1558 14.0413C13.1558 13.1555 12.4377 12.4374 11.552 12.4374C10.6662 12.4374 9.94812 13.1555 9.94812 14.0413C9.94812 14.7288 10.3828 15.3106 10.9907 15.5386V17.2683L14.4416 19.6205V20.7869C13.8337 21.0149 13.399 21.5966 13.399 22.2842C13.399 23.1699 14.1171 23.888 15.0028 23.888C15.8886 23.888 16.6067 23.1699 16.6067 22.2842C16.6067 21.5968 16.172 21.015 15.5643 20.7869V17.7557L19.2768 15.3686V13.591H20.052V11.025Z" fill="black"/>
</svg>
