<svg width="30" height="30" viewBox="0 0 30 30" fill="none" xmlns="http://www.w3.org/2000/svg">
<g clip-path="url(#clip0_381_1573)">
<path d="M23.541 17.3648L16.4247 22.6319L21.8058 16.6354L23.541 17.3648Z" fill="black"/>
<path d="M22.0136 21.4477L17.1962 22.845L20.5186 20.6354L22.0136 21.4477Z" fill="black"/>
<path d="M12.9804 13.4173C11.0863 13.4173 9.45095 14.5271 8.67735 16.128C8.42295 16.1042 8.09927 15.9863 7.96551 15.8467C7.61927 15.4853 7.57079 14.7645 7.58183 14.4915V7.02017H6.46103L6.46167 14.4637C6.45479 14.6029 6.41575 15.844 7.15159 16.6173C7.45607 16.9371 7.85351 17.1282 8.31063 17.1805C8.23911 17.509 8.19895 17.849 8.19895 18.1986C8.19895 20.8349 10.3438 22.9799 12.9802 22.9799C15.6167 22.9799 17.7615 20.8351 17.7615 18.1986C17.7615 15.5621 15.6167 13.4173 12.9804 13.4173ZM12.9804 21.8591C10.962 21.8591 9.31991 20.2171 9.31991 18.1986C9.31991 16.18 10.962 14.5381 12.9804 14.5381C14.999 14.5381 16.641 16.18 16.641 18.1986C16.641 20.2171 14.999 21.8591 12.9804 21.8591Z" fill="black"/>
<path d="M12.9804 16.0416C11.7391 16.0416 10.7294 17.0514 10.7294 18.2928C10.7294 19.5339 11.7391 20.5437 12.9804 20.5437C14.2217 20.5437 15.2316 19.5339 15.2316 18.2928C15.2316 17.0512 14.2217 16.0416 12.9804 16.0416ZM12.9804 19.4227C12.3572 19.4227 11.8502 18.9159 11.8502 18.2927C11.8502 17.6695 12.3572 17.1623 12.9804 17.1623C13.6038 17.1623 14.1108 17.6695 14.1108 18.2927C14.1108 18.9159 13.6038 19.4227 12.9804 19.4227Z" fill="black"/>
</g>
<defs>
<clipPath id="clip0_381_1573">
<rect width="30" height="30" fill="white"/>
</clipPath>
</defs>
</svg>
