<svg width="15" height="16" viewBox="0 0 15 16" fill="none" xmlns="http://www.w3.org/2000/svg">
<path d="M6.92308 7.42308V1.07692C6.92308 0.923914 6.98386 0.777171 7.09205 0.668977C7.20025 0.560783 7.34699 0.5 7.5 0.5C7.65301 0.5 7.79975 0.560783 7.90795 0.668977C8.01614 0.777171 8.07692 0.923914 8.07692 1.07692V7.42308H14.4231C14.5761 7.42308 14.7228 7.48386 14.831 7.59205C14.9392 7.70025 15 7.84699 15 8C15 8.15301 14.9392 8.29975 14.831 8.40795C14.7228 8.51614 14.5761 8.57692 14.4231 8.57692H8.07692V14.9231C8.07692 15.0761 8.01614 15.2228 7.90795 15.331C7.79975 15.4392 7.65301 15.5 7.5 15.5C7.34699 15.5 7.20025 15.4392 7.09205 15.331C6.98386 15.2228 6.92308 15.0761 6.92308 14.9231V8.57692H0.576923C0.423914 8.57692 0.277171 8.51614 0.168977 8.40795C0.0607828 8.29975 0 8.15301 0 8C0 7.84699 0.0607828 7.70025 0.168977 7.59205C0.277171 7.48386 0.423914 7.42308 0.576923 7.42308H6.92308Z" fill="white"/>
</svg>
