<svg width="30" height="30" viewBox="0 0 30 30" fill="none" xmlns="http://www.w3.org/2000/svg">
<path d="M13.7825 10.2767C13.1421 8.83291 12.3615 6.21316 12.3537 6.18691L12.242 5.81116H10.7853H10.398H8.77219L8.65234 6.16996C8.64349 6.19621 7.76614 8.81251 7.04569 10.2551C6.78109 10.7846 6.79954 11.8314 7.35454 12.7289C7.50859 12.978 7.72114 13.2426 8.00794 13.4852C7.78819 13.7816 7.66114 14.123 7.66114 14.4918V22.1141C7.66114 23.2775 8.89114 24.1889 10.4613 24.1889C11.9235 24.1889 13.1219 23.3774 13.2504 22.2831C13.2596 22.1957 13.2615 14.5686 13.2615 14.4918C13.2615 14.1201 13.1325 13.7762 12.9096 13.4778C13.1084 13.2917 13.2657 13.0956 13.3869 12.9092C13.9688 12.0149 14.045 10.8683 13.7825 10.2767ZM12.2031 22.1949C12.1334 22.6536 11.4251 23.1381 10.4613 23.1381C9.43024 23.1381 8.71174 22.5983 8.71174 22.1139V14.4918C8.71174 14.3375 8.78614 14.1786 8.91964 14.0333C8.97799 14.0571 9.04309 14.0768 9.10534 14.0981V15.5532C9.10534 16.2936 9.70774 16.896 10.448 16.896C11.1425 16.896 11.7302 16.3538 11.7863 15.6522C11.7879 15.6296 11.789 14.9453 11.7897 14.1408C11.8694 14.1132 11.9507 14.087 12.024 14.0553C12.1445 14.195 12.2109 14.3457 12.2109 14.492C12.2111 14.5631 12.2067 21.7286 12.2031 22.1949ZM10.1559 15.5532V11.5319C10.1559 11.3708 10.287 11.2398 10.448 11.2398C10.6091 11.2398 10.7402 11.3709 10.7402 11.5319C10.7402 11.5701 10.7385 15.4866 10.7384 15.5772C10.7264 15.7275 10.5987 15.8453 10.4478 15.8453C10.287 15.8454 10.1559 15.7143 10.1559 15.5532ZM12.5063 12.3365C12.3236 12.6173 12.0801 12.8301 11.7903 12.9893C11.7906 12.2049 11.7908 11.5482 11.7908 11.532C11.7908 10.7918 11.1884 10.1894 10.448 10.1894C9.70774 10.1894 9.10534 10.7918 9.10534 11.532V12.9488C8.74459 12.7611 8.45209 12.5064 8.24794 12.1763C7.85884 11.5469 7.90189 10.8917 7.98544 10.7243C8.58229 9.52936 9.25459 7.64656 9.52609 6.86161H10.7853H11.4605C11.705 7.65586 12.2966 9.51796 12.822 10.7025C12.9084 10.8969 12.9408 11.6682 12.5063 12.3365Z" fill="black"/>
<path d="M10.4481 19.4618C9.56493 19.4618 8.84644 20.1803 8.84644 21.0633C8.84644 21.9464 9.56493 22.6649 10.4481 22.6649C11.3312 22.6649 12.0497 21.9464 12.0497 21.0633C12.0497 20.1803 11.3312 19.4618 10.4481 19.4618ZM10.4481 21.6143C10.1444 21.6143 9.89704 21.3672 9.89704 21.0633C9.89704 20.7596 10.1442 20.5124 10.4481 20.5124C10.752 20.5124 10.9991 20.7594 10.9991 21.0633C10.9991 21.3671 10.752 21.6143 10.4481 21.6143Z" fill="black"/>
<path d="M18.3695 17.0758H15.8992V14.1475H17.7452C18.9215 14.1475 19.8784 13.383 19.8784 12.4431V12.2865C19.8784 11.3466 18.9215 10.582 17.7452 10.582H15.8992V7.65375H18.3695C20.9627 7.65375 23.0773 9.7422 23.1191 12.3256H23.1197L23.1191 12.4039C23.0771 14.9874 20.9627 17.0758 18.3695 17.0758ZM16.9498 16.0254H18.3695C20.3965 16.0254 22.048 14.3868 22.069 12.3648C22.0478 10.3428 20.3965 8.7042 18.3695 8.7042H16.9498V9.53145H17.7454C19.5008 9.53145 20.9291 10.7674 20.9291 12.2865V12.4431C20.9291 13.9621 19.5008 15.1981 17.7454 15.1981H16.9498V16.0254Z" fill="black"/>
<path d="M15.515 7.7262H14.4644V10.5793H15.515V7.7262Z" fill="black"/>
<path d="M15.515 14.2051H14.4644V17.0583H15.515V14.2051Z" fill="black"/>
</svg>
