<svg width="20" height="20" viewBox="0 0 20 20" fill="none" xmlns="http://www.w3.org/2000/svg">
<path d="M11.7278 10L7.48424 14.361C7.44931 14.3961 7.42169 14.4379 7.40298 14.4837C7.38427 14.5296 7.37485 14.5788 7.37526 14.6283C7.37568 14.6779 7.38591 14.7269 7.40538 14.7724C7.42484 14.818 7.45315 14.8593 7.48867 14.8938C7.52419 14.9284 7.56621 14.9556 7.61229 14.9738C7.65838 14.992 7.70762 15.0009 7.75717 14.9999C7.80672 14.999 7.85558 14.9882 7.90095 14.9683C7.94631 14.9483 7.98726 14.9196 8.02143 14.8837L12.5188 10.2613C12.5869 10.1914 12.625 10.0976 12.625 10C12.625 9.90238 12.5869 9.80862 12.5188 9.73865L8.02144 5.11632C7.98726 5.08043 7.94631 5.05168 7.90095 5.03172C7.85559 5.01177 7.80672 5.00101 7.75717 5.00007C7.70762 4.99912 7.65838 5.00802 7.61229 5.02623C7.56621 5.04444 7.52419 5.07161 7.48867 5.10617C7.45316 5.14073 7.42484 5.18199 7.40538 5.22756C7.38591 5.27314 7.37568 5.32212 7.37527 5.37167C7.37485 5.42122 7.38427 5.47037 7.40298 5.51626C7.42169 5.56215 7.44931 5.60387 7.48425 5.63901L11.7278 10Z" fill="black"/>
</svg>
