<svg width="100" height="16" viewBox="0 0 100 16" fill="none" xmlns="http://www.w3.org/2000/svg">
<g clip-path="url(#clip0_381_1684)">
<path d="M20.3876 11.2235H15.8139C15.0387 11.2235 14.4186 10.6033 14.4186 9.8281C14.4186 9.05291 15.0387 8.43275 15.8139 8.43275H20.2325H20.31L20.3876 11.2235ZM19.0697 2.69632H13.4883V4.71182C13.7984 4.71182 18.2945 4.71182 19.0697 4.71182C19.8449 4.71182 20.4651 5.33198 20.4651 6.02965V6.49477H15.8914C14.031 6.49477 12.5581 7.96764 12.5581 9.8281C12.5581 11.6886 14.031 13.1614 15.8914 13.1614H22.4031V5.95213C22.4031 4.16919 20.9302 2.69632 19.0697 2.69632Z" fill="black"/>
<path d="M35.969 2.6188C37.8295 2.6188 39.3023 4.09167 39.3023 5.95214V13.1614H37.2868V6.02966C37.2868 5.25446 36.6667 4.63431 35.8915 4.63431H32.4031V13.1614H30.3876V4.63431H27.1318C26.3566 4.63431 25.7365 5.25446 25.7365 6.02966V13.1614H23.7209V5.95214C23.7209 4.09167 25.1938 2.6188 27.0543 2.6188H35.969Z" fill="black"/>
<path d="M43.5658 2.6188C42.093 2.6188 40.8527 3.85912 40.8527 5.33198C40.8527 6.41725 41.5503 7.42501 42.5581 7.8126C47.8294 9.44051 47.8294 9.44051 47.8294 9.44051C48.217 9.59555 48.4496 9.90563 48.4496 10.2932C48.4496 10.7583 48.062 11.1459 47.5968 11.1459H40.8527V13.1614H47.5968C49.1472 13.1614 50.4651 11.8436 50.4651 10.2932C50.4651 9.13043 49.7674 8.04516 48.6821 7.65756L46.4341 6.95989L43.3333 5.95214C43.0232 5.87462 42.8682 5.56454 42.8682 5.33198C42.8682 4.94439 43.1782 4.63431 43.5658 4.63431H49.3798V2.6188H43.5658Z" fill="black"/>
<path d="M67.9845 10.4483V7.73508V5.95214C67.9845 4.09167 69.4574 2.6188 71.3178 2.6188H74.7287C76.5892 2.6188 78.062 4.09167 78.062 5.95214V7.96764C78.062 7.96764 78.062 12.9289 78.062 13.0839H76.0465C76.0465 12.8514 76.0465 5.95214 76.0465 5.95214C76.0465 5.17694 75.4264 4.55679 74.6512 4.55679H71.2403C70.4651 4.55679 69.845 5.17694 69.845 5.95214V13.0839H67.8295C68.062 12.9289 67.9845 10.4483 67.9845 10.4483Z" fill="black"/>
<path d="M85.1938 0.525787V2.54129C85.1938 2.54129 88.1396 2.54129 88.3721 2.54129V4.5568H85.1938V9.7506C85.1938 10.5258 85.814 11.1459 86.5892 11.1459H89.3799V13.1614H86.5892C84.7287 13.1614 83.2559 11.6886 83.2559 9.82811V7.81261C83.2559 7.81261 83.2559 1.61106 83.2559 0.680826L85.1938 0.525787Z" fill="black"/>
<path d="M81.6959 2.53942L79.6804 2.54312L79.6998 13.0858L81.7153 13.0821L81.6959 2.53942Z" fill="black"/>
<path d="M98.062 6.64982H92.4806V5.95214C92.4806 5.17695 93.1007 4.55679 93.8759 4.55679H96.7442C97.5194 4.55679 98.1395 5.17695 98.1395 5.95214L98.062 6.64982ZM100 5.87462C100 4.01416 98.5271 2.54129 96.6666 2.54129H93.7984C91.938 2.54129 90.4651 4.01416 90.4651 5.87462V9.67307C90.4651 11.5335 91.938 13.0064 93.7984 13.0064H98.9922V10.9909H93.7984C93.0232 10.9909 92.4031 10.3707 92.4031 9.59555V8.51028C92.4031 8.51028 99.7674 8.51028 100 8.51028V5.87462Z" fill="black"/>
<path d="M8.06202 11.2235C8.75969 11.2235 9.37985 10.6033 9.37985 9.90562C9.37985 9.36299 8.99225 8.82035 8.52713 8.66531L1.93798 6.64981C0.775194 6.18469 0 5.0219 0 3.78159C0 2.07617 1.39535 0.680817 3.10078 0.680817H10.3101V2.69632H3.10078C2.55814 2.69632 2.0155 3.16144 2.0155 3.78159C2.0155 4.24671 2.32558 4.6343 2.71318 4.78934L6.04651 5.87461L9.22481 6.88237C10.4651 7.34748 11.3178 8.58779 11.3178 9.90562C11.3178 11.6886 9.84496 13.239 8.06202 13.239H0V11.2235H8.06202Z" fill="black"/>
<path d="M59.7675 11.6886C58.5272 13.0064 56.7442 13.5491 55.1163 13.3165C55.3489 13.7041 55.659 14.1692 56.0466 14.4793C57.907 16.1847 60.8528 16.1072 62.5582 14.2467C64.2636 12.3863 64.1861 9.44053 62.3256 7.7351C61.938 7.42502 61.5504 7.11494 61.0853 6.88239C61.3954 8.58781 61.0078 10.3708 59.7675 11.6886Z" fill="black"/>
<path d="M62.8682 7.19245C64.186 8.43276 64.7287 10.2157 64.4961 11.8436C64.8837 11.6111 65.3488 11.301 65.6589 10.9134C67.3643 9.05291 67.2868 6.10718 65.4264 4.40175C63.5659 2.6188 60.6977 2.77384 58.9147 4.63431C58.6046 5.0219 58.2946 5.4095 58.062 5.87462C59.7674 5.48702 61.5504 5.95214 62.8682 7.19245Z" fill="black"/>
<path d="M58.3721 4.01416C59.6124 2.69633 61.3953 2.15369 63.0232 2.38625C62.7907 1.99865 62.4806 1.53354 62.093 1.22346C60.2325 -0.481968 57.2868 -0.404449 55.5814 1.45602C53.8759 3.31648 53.9535 6.26222 55.8139 7.96764C56.2015 8.27772 56.5891 8.5878 57.0542 8.82036C56.6666 7.11493 57.1318 5.33199 58.3721 4.01416Z" fill="black"/>
<path d="M55.2714 8.58781C53.9535 7.3475 53.4109 5.56455 53.6435 3.93665C53.2559 4.1692 52.7907 4.47928 52.4807 4.86688C50.7752 6.72734 50.8528 9.67308 52.7132 11.3785C54.5737 13.0839 57.5194 13.0064 59.2248 11.1459C59.6124 10.7584 59.845 10.3708 60.0776 9.90564C58.3721 10.2157 56.5892 9.82812 55.2714 8.58781Z" fill="black"/>
</g>
<defs>
<clipPath id="clip0_381_1684">
<rect width="100" height="15.7027" fill="white"/>
</clipPath>
</defs>
</svg>
