<svg width="150" height="24" viewBox="0 0 150 24" fill="none" xmlns="http://www.w3.org/2000/svg">
<path d="M30.5813 17.0581H23.7209C22.5581 17.0581 21.6279 16.1279 21.6279 14.9651C21.6279 13.8023 22.5581 12.8721 23.7209 12.8721H30.3488H30.4651L30.5813 17.0581ZM28.6046 4.26744H20.2325V7.2907C20.6976 7.2907 27.4418 7.2907 28.6046 7.2907C29.7674 7.2907 30.6976 8.22093 30.6976 9.26744V9.96512H23.8372C21.0465 9.96512 18.8372 12.1744 18.8372 14.9651C18.8372 17.7558 21.0465 19.9651 23.8372 19.9651H33.6046V9.15116C33.6046 6.47674 31.3953 4.26744 28.6046 4.26744Z" fill="black"/>
<path d="M53.9534 4.15116C56.7441 4.15116 58.9534 6.36046 58.9534 9.15116V19.9651H55.9301V9.26744C55.9301 8.10465 54.9999 7.17442 53.8371 7.17442H48.6046V19.9651H45.5813V7.17442H40.6976C39.5348 7.17442 38.6046 8.10465 38.6046 9.26744V19.9651H35.5813V9.15116C35.5813 6.36046 37.7906 4.15116 40.5813 4.15116H53.9534Z" fill="black"/>
<path d="M65.3488 4.15116C63.1395 4.15116 61.2791 6.01163 61.2791 8.22093C61.2791 9.84884 62.3256 11.3605 63.8372 11.9419C71.7442 14.3837 71.7442 14.3837 71.7442 14.3837C72.3256 14.6163 72.6744 15.0814 72.6744 15.6628C72.6744 16.3605 72.093 16.9419 71.3953 16.9419H61.2791V19.9651H71.3953C73.7209 19.9651 75.6977 17.9884 75.6977 15.6628C75.6977 13.9186 74.6511 12.2907 73.0232 11.7093L69.6511 10.6628L65 9.15116C64.5349 9.03488 64.3023 8.56977 64.3023 8.22093C64.3023 7.63953 64.7674 7.17442 65.3488 7.17442H74.0697V4.15116H65.3488Z" fill="black"/>
<path d="M101.977 15.8953V11.8256V9.15116C101.977 6.36046 104.186 4.15116 106.977 4.15116H112.093C114.884 4.15116 117.093 6.36046 117.093 9.15116V12.1744C117.093 12.1744 117.093 19.6163 117.093 19.8488H114.07C114.07 19.5 114.07 9.15116 114.07 9.15116C114.07 7.98837 113.139 7.05814 111.977 7.05814H106.86C105.698 7.05814 104.767 7.98837 104.767 9.15116V19.8488H101.744C102.093 19.6163 101.977 15.8953 101.977 15.8953Z" fill="black"/>
<path d="M127.791 1.01163V4.03488C127.791 4.03488 132.209 4.03488 132.558 4.03488V7.05814H127.791V14.8488C127.791 16.0116 128.721 16.9419 129.884 16.9419H134.07V19.9651H129.884C127.093 19.9651 124.884 17.7558 124.884 14.9651V11.9419C124.884 11.9419 124.884 2.63953 124.884 1.24419L127.791 1.01163Z" fill="black"/>
<path d="M122.544 4.03209L119.521 4.03764L119.55 19.8516L122.573 19.846L122.544 4.03209Z" fill="black"/>
<path d="M147.093 10.1977H138.721V9.15116C138.721 7.98837 139.651 7.05814 140.814 7.05814H145.116C146.279 7.05814 147.209 7.98837 147.209 9.15116L147.093 10.1977ZM150 9.03488C150 6.24418 147.791 4.03488 145 4.03488H140.698C137.907 4.03488 135.698 6.24418 135.698 9.03488V14.7326C135.698 17.5233 137.907 19.7326 140.698 19.7326H148.488V16.7093H140.698C139.535 16.7093 138.605 15.7791 138.605 14.6163V12.9884C138.605 12.9884 149.651 12.9884 150 12.9884V9.03488Z" fill="black"/>
<path d="M12.093 17.0581C13.1395 17.0581 14.0698 16.1279 14.0698 15.0814C14.0698 14.2674 13.4884 13.4535 12.7907 13.2209L2.90698 10.1977C1.16279 9.5 0 7.75581 0 5.89535C0 3.33721 2.09302 1.24419 4.65116 1.24419H15.4651V4.26744H4.65116C3.83721 4.26744 3.02326 4.96512 3.02326 5.89535C3.02326 6.59302 3.48837 7.17442 4.06977 7.40698L9.06977 9.03488L13.8372 10.5465C15.6977 11.2442 16.9767 13.1047 16.9767 15.0814C16.9767 17.7558 14.7674 20.0814 12.093 20.0814H0V17.0581H12.093Z" fill="black"/>
<path d="M89.6511 17.7558C87.7906 19.7326 85.1162 20.5465 82.6743 20.1977C83.0232 20.7791 83.4883 21.4767 84.0697 21.9419C86.8604 24.5 91.279 24.3837 93.8371 21.593C96.3952 18.8023 96.279 14.3837 93.4883 11.8256C92.9069 11.3605 92.3255 10.8953 91.6278 10.5465C92.0929 13.1046 91.5115 15.7791 89.6511 17.7558Z" fill="black"/>
<path d="M94.3023 11.0116C96.2791 12.8721 97.093 15.5465 96.7442 17.9884C97.3256 17.6395 98.0232 17.1744 98.4884 16.593C101.047 13.8023 100.93 9.38373 98.1395 6.82559C95.3488 4.15117 91.0465 4.38373 88.3721 7.17442C87.907 7.75582 87.4419 8.33721 87.093 9.03489C89.6512 8.45349 92.3256 9.15117 94.3023 11.0116Z" fill="black"/>
<path d="M87.5581 6.24419C89.4186 4.26744 92.093 3.45349 94.5348 3.80233C94.186 3.22093 93.7209 2.52326 93.1395 2.05814C90.3488 -0.499999 85.9302 -0.38372 83.3721 2.40698C80.8139 5.19768 80.9302 9.61628 83.7209 12.1744C84.3023 12.6395 84.8837 13.1047 85.5814 13.4535C85 10.8953 85.6976 8.22093 87.5581 6.24419Z" fill="black"/>
<path d="M82.907 13.1047C80.9302 11.2442 80.1163 8.56977 80.4651 6.12791C79.8837 6.47674 79.186 6.94186 78.7209 7.52326C76.1628 10.314 76.2791 14.7326 79.0698 17.2907C81.8605 19.8488 86.2791 19.7326 88.8372 16.9419C89.4186 16.3605 89.7674 15.7791 90.1163 15.0814C87.5581 15.5465 84.8837 14.9651 82.907 13.1047Z" fill="black"/>
</svg>
