<svg width="150" height="24" viewBox="0 0 150 24" fill="none" xmlns="http://www.w3.org/2000/svg">
<path d="M30.5816 16.8351H23.7211C22.5583 16.8351 21.6281 15.9049 21.6281 14.7421C21.6281 13.5793 22.5583 12.6491 23.7211 12.6491H30.349H30.4653L30.5816 16.8351ZM28.6048 4.04443H20.2327V7.06769C20.6979 7.06769 27.4421 7.06769 28.6048 7.06769C29.7676 7.06769 30.6979 7.99792 30.6979 9.04443V9.74211H23.8374C21.0467 9.74211 18.8374 11.9514 18.8374 14.7421C18.8374 17.5328 21.0467 19.7421 23.8374 19.7421H33.6048V8.92815C33.6048 6.25374 31.3955 4.04443 28.6048 4.04443Z" fill="white"/>
<path d="M53.9536 3.92822C56.7443 3.92822 58.9536 6.13752 58.9536 8.92822V19.7422H55.9304V9.0445C55.9304 7.88171 55.0001 6.95148 53.8374 6.95148H48.6048V19.7422H45.5815V6.95148H40.6978C39.535 6.95148 38.6048 7.88171 38.6048 9.0445V19.7422H35.5815V8.92822C35.5815 6.13752 37.7908 3.92822 40.5815 3.92822H53.9536Z" fill="white"/>
<path d="M65.3491 3.92822C63.1398 3.92822 61.2793 5.78869 61.2793 7.99799C61.2793 9.6259 62.3258 11.1375 63.8374 11.7189C71.7444 14.1608 71.7444 14.1608 71.7444 14.1608C72.3258 14.3933 72.6746 14.8585 72.6746 15.4399C72.6746 16.1375 72.0933 16.7189 71.3956 16.7189H61.2793V19.7422H71.3956C73.7212 19.7422 75.6979 17.7654 75.6979 15.4399C75.6979 13.6957 74.6514 12.0678 73.0235 11.4864L69.6514 10.4399L65.0002 8.92822C64.5351 8.81194 64.3026 8.34683 64.3026 7.99799C64.3026 7.41659 64.7677 6.95148 65.3491 6.95148H74.07V3.92822H65.3491Z" fill="white"/>
<path d="M101.977 15.6724V11.6026V8.92822C101.977 6.13752 104.186 3.92822 106.977 3.92822H112.093C114.884 3.92822 117.093 6.13752 117.093 8.92822V11.9515C117.093 11.9515 117.093 19.3933 117.093 19.6259H114.07C114.07 19.2771 114.07 8.92822 114.07 8.92822C114.07 7.76543 113.139 6.8352 111.977 6.8352H106.86C105.698 6.8352 104.767 7.76543 104.767 8.92822V19.6259H101.744C102.093 19.3933 101.977 15.6724 101.977 15.6724Z" fill="white"/>
<path d="M127.791 0.788574V3.81183C127.791 3.81183 132.209 3.81183 132.558 3.81183V6.83509H127.791V14.6258C127.791 15.7886 128.721 16.7188 129.884 16.7188H134.07V19.7421H129.884C127.093 19.7421 124.884 17.5328 124.884 14.7421V11.7188C124.884 11.7188 124.884 2.41648 124.884 1.02113L127.791 0.788574Z" fill="white"/>
<path d="M122.544 3.80891L119.521 3.81445L119.55 19.6284L122.573 19.6229L122.544 3.80891Z" fill="white"/>
<path d="M147.093 9.9748H138.721V8.92829C138.721 7.7655 139.651 6.83527 140.814 6.83527H145.116C146.279 6.83527 147.209 7.7655 147.209 8.92829L147.093 9.9748ZM150 8.81201C150 6.02131 147.791 3.81201 145 3.81201H140.698C137.907 3.81201 135.698 6.02131 135.698 8.81201V14.5097C135.698 17.3004 137.907 19.5097 140.698 19.5097H148.488V16.4864H140.698C139.535 16.4864 138.605 15.5562 138.605 14.3934V12.7655C138.605 12.7655 149.651 12.7655 150 12.7655V8.81201Z" fill="white"/>
<path d="M12.093 16.8349C13.1395 16.8349 14.0698 15.9047 14.0698 14.8582C14.0698 14.0443 13.4884 13.2303 12.7907 12.9977L2.90698 9.97448C1.16279 9.27681 0 7.53262 0 5.67216C0 3.11402 2.09302 1.021 4.65116 1.021H15.4651V4.04425H4.65116C3.83721 4.04425 3.02326 4.74193 3.02326 5.67216C3.02326 6.36983 3.48837 6.95123 4.06977 7.18379L9.06977 8.81169L13.8372 10.3233C15.6977 11.021 16.9767 12.8815 16.9767 14.8582C16.9767 17.5326 14.7674 19.8582 12.093 19.8582H0V16.8349H12.093Z" fill="white"/>
<path d="M89.6511 17.533C87.7906 19.5098 85.1162 20.3237 82.6743 19.9749C83.0232 20.5563 83.4883 21.254 84.0697 21.7191C86.8604 24.2772 91.279 24.1609 93.8371 21.3702C96.3952 18.5795 96.279 14.1609 93.4883 11.6028C92.9069 11.1377 92.3255 10.6726 91.6278 10.3237C92.0929 12.8819 91.5115 15.5563 89.6511 17.533Z" fill="white"/>
<path d="M94.3026 10.7885C96.2793 12.649 97.0933 15.3234 96.7444 17.7653C97.3258 17.4164 98.0235 16.9513 98.4886 16.3699C101.047 13.5792 100.93 9.16061 98.1398 6.60247C95.3491 3.92805 91.0467 4.16061 88.3723 6.95131C87.9072 7.5327 87.4421 8.1141 87.0933 8.81177C89.6514 8.23038 92.3258 8.92805 94.3026 10.7885Z" fill="white"/>
<path d="M87.5583 6.02123C89.4188 4.04449 92.0932 3.23054 94.5351 3.57937C94.1863 2.99798 93.7211 2.3003 93.1397 1.83519C90.349 -0.722952 85.9304 -0.606674 83.3723 2.18402C80.8142 4.97472 80.9304 9.39333 83.7211 11.9515C84.3025 12.4166 84.8839 12.8817 85.5816 13.2305C85.0002 10.6724 85.6979 7.99798 87.5583 6.02123Z" fill="white"/>
<path d="M82.907 12.8815C80.9302 11.0211 80.1163 8.34665 80.4651 5.90479C79.8837 6.25362 79.186 6.71874 78.7209 7.30013C76.1628 10.0908 76.2791 14.5094 79.0698 17.0676C81.8605 19.6257 86.2791 19.5094 88.8372 16.7187C89.4186 16.1373 89.7674 15.5559 90.1163 14.8583C87.5581 15.3234 84.8837 14.742 82.907 12.8815Z" fill="white"/>
</svg>
